<?xml version="1.0" encoding="iso-8859-1"?>
<!-- Generator: Adobe Illustrator 19.0.0, SVG Export Plug-In . SVG Version: 6.00 Build 0)  -->
<svg version="1.1" id="Capa_1" xmlns="http://www.w3.org/2000/svg" xmlns:xlink="http://www.w3.org/1999/xlink" x="0px" y="0px"
	 viewBox="0 0 469.333 469.333" style="enable-background:new 0 0 469.333 469.333;" xml:space="preserve" fill="#fff">
<g>
	<g>
		<path d="M426.667,0h-384C19.135,0,0,19.135,0,42.667v384c0,23.531,19.135,42.667,42.667,42.667h384
			c23.531,0,42.667-19.135,42.667-42.667v-384C469.333,19.135,450.198,0,426.667,0z M93.385,241.771
			c17.434-49.249,61.023-83.917,111.71-90.947c-1.549-3.754-2.428-7.852-2.428-12.158c0-17.646,14.354-32,32-32s32,14.354,32,32
			c0,4.306-0.879,8.404-2.428,12.158c50.686,7.03,94.276,41.698,111.71,90.947c1.156,3.271,0.656,6.885-1.344,9.719
			c-2,2.833-5.24,4.51-8.708,4.51H103.437c-3.469,0-6.708-1.677-8.708-4.51C92.729,248.656,92.229,245.042,93.385,241.771z
			 M352,341.333H117.333C87.927,341.333,64,317.406,64,288c0-5.896,4.771-10.667,10.667-10.667h320
			c5.896,0,10.667,4.771,10.667,10.667C405.333,317.406,381.406,341.333,352,341.333z"/>
	</g>
</g>
<g>
</g>
<g>
</g>
<g>
</g>
<g>
</g>
<g>
</g>
<g>
</g>
<g>
</g>
<g>
</g>
<g>
</g>
<g>
</g>
<g>
</g>
<g>
</g>
<g>
</g>
<g>
</g>
<g>
</g>
</svg>
